solid Created by stlwrite.m 21-May-2017 12:04:38
facet normal NaN NaN NaN
outer loop
vertex 0.0000000E+00 0.0000000E+00 -1.5000000E+00
vertex 0.0000000E+00 0.0000000E+00 -1.5000000E+00
vertex -5.0000000E-01 -9.0817817E-02 -1.4265847E+00
endloop
endfacet
facet normal -3.2381475E-01 -4.2085525E-01 -8.4736347E-01
outer loop
vertex -6.1803401E-01 0.0000000E+00 -1.4265847E+00
vertex -5.0000000E-01 -9.0817817E-02 -1.4265847E+00
vertex -9.5105654E-01 -1.7274575E-01 -1.2135255E+00
endloop
endfacet
facet normal -4.7314572E-01 -6.1493737E-01 -6.3086081E-01
outer loop
vertex -1.1755705E+00 0.0000000E+00 -1.2135255E+00
vertex -9.5105654E-01 -1.7274575E-01 -1.2135255E+00
vertex -1.3090169E+00 -2.3776414E-01 -8.8167787E-01
endloop
endfacet
facet normal -5.6337309E-01 -7.3220414E-01 -3.8273728E-01
outer loop
vertex -1.6180340E+00 0.0000000E+00 -8.8167787E-01
vertex -1.3090169E+00 -2.3776414E-01 -8.8167787E-01
vertex -1.5388417E+00 -2.7950850E-01 -4.6352550E-01
endloop
endfacet
facet normal -6.0481095E-01 -7.8606009E-01 -1.2772362E-01
outer loop
vertex -1.9021131E+00 0.0000000E+00 -4.6352550E-01
vertex -1.5388417E+00 -2.7950850E-01 -4.6352550E-01
vertex -1.6180340E+00 -2.9389262E-01 0.0000000E+00
endloop
endfacet
facet normal -6.0481101E-01 -7.8605998E-01 1.2772356E-01
outer loop
vertex -2.0000000E+00 0.0000000E+00 0.0000000E+00
vertex -1.6180340E+00 -2.9389262E-01 0.0000000E+00
vertex -1.5388417E+00 -2.7950850E-01 4.6352550E-01
endloop
endfacet
facet normal -5.6337309E-01 -7.3220426E-01 3.8273731E-01
outer loop
vertex -1.9021131E+00 0.0000000E+00 4.6352550E-01
vertex -1.5388417E+00 -2.7950850E-01 4.6352550E-01
vertex -1.3090169E+00 -2.3776414E-01 8.8167787E-01
endloop
endfacet
facet normal -4.7314566E-01 -6.1493748E-01 6.3086063E-01
outer loop
vertex -1.6180340E+00 0.0000000E+00 8.8167787E-01
vertex -1.3090169E+00 -2.3776414E-01 8.8167787E-01
vertex -9.5105654E-01 -1.7274575E-01 1.2135255E+00
endloop
endfacet
facet normal -3.2381478E-01 -4.2085513E-01 8.4736347E-01
outer loop
vertex -1.1755705E+00 0.0000000E+00 1.2135255E+00
vertex -9.5105654E-01 -1.7274575E-01 1.2135255E+00
vertex -5.0000000E-01 -9.0817817E-02 1.4265847E+00
endloop
endfacet
facet normal -1.1659683E-01 -1.5153845E-01 9.8155051E-01
outer loop
vertex -6.1803401E-01 0.0000000E+00 1.4265847E+00
vertex -5.0000000E-01 -9.0817817E-02 1.4265847E+00
vertex 0.0000000E+00 0.0000000E+00 1.5000000E+00
endloop
endfacet
facet normal NaN NaN NaN
outer loop
vertex 0.0000000E+00 0.0000000E+00 -1.5000000E+00
vertex 0.0000000E+00 0.0000000E+00 -1.5000000E+00
vertex -1.9098301E-01 -1.4694631E-01 -1.4265847E+00
endloop
endfacet
facet normal -1.4251086E-01 -7.8459758E-01 -6.0340476E-01
outer loop
vertex -5.0000000E-01 -9.0817817E-02 -1.4265847E+00
vertex -1.9098301E-01 -1.4694631E-01 -1.4265847E+00
vertex -3.6327127E-01 -2.7950850E-01 -1.2135255E+00
endloop
endfacet
facet normal -1.6674750E-01 -9.1803288E-01 -3.5973734E-01
outer loop
vertex -9.5105654E-01 -1.7274575E-01 -1.2135255E+00
vertex -3.6327127E-01 -2.7950850E-01 -1.2135255E+00
vertex -5.0000000E-01 -3.8471043E-01 -8.8167787E-01
endloop
endfacet
facet normal -1.7535989E-01 -9.6544886E-01 -1.9276249E-01
outer loop
vertex -1.3090169E+00 -2.3776414E-01 -8.8167787E-01
vertex -5.0000000E-01 -3.8471043E-01 -8.8167787E-01
vertex -5.8778524E-01 -4.5225424E-01 -4.6352550E-01
endloop
endfacet
facet normal -1.7837928E-01 -9.8207211E-01 -6.0951397E-02
outer loop
vertex -1.5388417E+00 -2.7950850E-01 -4.6352550E-01
vertex -5.8778524E-01 -4.5225424E-01 -4.6352550E-01
vertex -6.1803401E-01 -4.7552827E-01 0.0000000E+00
endloop
endfacet
facet normal -1.7837931E-01 -9.8207217E-01 6.0951408E-02
outer loop
vertex -1.6180340E+00 -2.9389262E-01 0.0000000E+00
vertex -6.1803401E-01 -4.7552827E-01 0.0000000E+00
vertex -5.8778524E-01 -4.5225424E-01 4.6352550E-01
endloop
endfacet
facet normal -1.7535990E-01 -9.6544886E-01 1.9276251E-01
outer loop
vertex -1.5388417E+00 -2.7950850E-01 4.6352550E-01
vertex -5.8778524E-01 -4.5225424E-01 4.6352550E-01
vertex -5.0000000E-01 -3.8471043E-01 8.8167787E-01
endloop
endfacet
facet normal -1.6674748E-01 -9.1803288E-01 3.5973740E-01
outer loop
vertex -1.3090169E+00 -2.3776414E-01 8.8167787E-01
vertex -5.0000000E-01 -3.8471043E-01 8.8167787E-01
vertex -3.6327127E-01 -2.7950850E-01 1.2135255E+00
endloop
endfacet
facet normal -1.4251088E-01 -7.8459752E-01 6.0340476E-01
outer loop
vertex -9.5105654E-01 -1.7274575E-01 1.2135255E+00
vertex -3.6327127E-01 -2.7950850E-01 1.2135255E+00
vertex -1.9098301E-01 -1.4694631E-01 1.4265847E+00
endloop
endfacet
facet normal -6.7908466E-02 -3.7387195E-01 9.2499095E-01
outer loop
vertex -5.0000000E-01 -9.0817817E-02 1.4265847E+00
vertex -1.9098301E-01 -1.4694631E-01 1.4265847E+00
vertex 0.0000000E+00 0.0000000E+00 1.5000000E+00
endloop
endfacet
facet normal NaN NaN NaN
outer loop
vertex 0.0000000E+00 0.0000000E+00 -1.5000000E+00
vertex 0.0000000E+00 0.0000000E+00 -1.5000000E+00
vertex 1.9098301E-01 -1.4694631E-01 -1.4265847E+00
endloop
endfacet
facet normal 0.0000000E+00 -8.4907079E-01 -5.2827895E-01
outer loop
vertex -1.9098301E-01 -1.4694631E-01 -1.4265847E+00
vertex 1.9098301E-01 -1.4694631E-01 -1.4265847E+00
vertex 3.6327127E-01 -2.7950850E-01 -1.2135255E+00
endloop
endfacet
facet normal 0.0000000E+00 -9.5324564E-01 -3.0219671E-01
outer loop
vertex -3.6327127E-01 -2.7950850E-01 -1.2135255E+00
vertex 3.6327127E-01 -2.7950850E-01 -1.2135255E+00
vertex 5.0000000E-01 -3.8471043E-01 -8.8167787E-01
endloop
endfacet
facet normal 0.0000000E+00 -9.8720402E-01 -1.5946224E-01
outer loop
vertex -5.0000000E-01 -3.8471043E-01 -8.8167787E-01
vertex 5.0000000E-01 -3.8471043E-01 -8.8167787E-01
vertex 5.8778524E-01 -4.5225424E-01 -4.6352550E-01
endloop
endfacet
facet normal 0.0000000E+00 -9.9874181E-01 -5.0147727E-02
outer loop
vertex -5.8778524E-01 -4.5225424E-01 -4.6352550E-01
vertex 5.8778524E-01 -4.5225424E-01 -4.6352550E-01
vertex 6.1803401E-01 -4.7552827E-01 0.0000000E+00
endloop
endfacet
facet normal 0.0000000E+00 -9.9874187E-01 5.0147731E-02
outer loop
vertex -6.1803401E-01 -4.7552827E-01 0.0000000E+00
vertex 6.1803401E-01 -4.7552827E-01 0.0000000E+00
vertex 5.8778524E-01 -4.5225424E-01 4.6352550E-01
endloop
endfacet
facet normal 0.0000000E+00 -9.8720407E-01 1.5946226E-01
outer loop
vertex -5.8778524E-01 -4.5225424E-01 4.6352550E-01
vertex 5.8778524E-01 -4.5225424E-01 4.6352550E-01
vertex 5.0000000E-01 -3.8471043E-01 8.8167787E-01
endloop
endfacet
facet normal 0.0000000E+00 -9.5324564E-01 3.0219671E-01
outer loop
vertex -5.0000000E-01 -3.8471043E-01 8.8167787E-01
vertex 5.0000000E-01 -3.8471043E-01 8.8167787E-01
vertex 3.6327127E-01 -2.7950850E-01 1.2135255E+00
endloop
endfacet
facet normal 0.0000000E+00 -8.4907079E-01 5.2827895E-01
outer loop
vertex -3.6327127E-01 -2.7950850E-01 1.2135255E+00
vertex 3.6327127E-01 -2.7950850E-01 1.2135255E+00
vertex 1.9098301E-01 -1.4694631E-01 1.4265847E+00
endloop
endfacet
facet normal 0.0000000E+00 -4.4693172E-01 8.9456809E-01
outer loop
vertex -1.9098301E-01 -1.4694631E-01 1.4265847E+00
vertex 1.9098301E-01 -1.4694631E-01 1.4265847E+00
vertex 0.0000000E+00 0.0000000E+00 1.5000000E+00
endloop
endfacet
facet normal NaN NaN NaN
outer loop
vertex 0.0000000E+00 0.0000000E+00 -1.5000000E+00
vertex 0.0000000E+00 0.0000000E+00 -1.5000000E+00
vertex 5.0000000E-01 -9.0817817E-02 -1.4265847E+00
endloop
endfacet
facet normal 1.4251086E-01 -7.8459758E-01 -6.0340470E-01
outer loop
vertex 1.9098301E-01 -1.4694631E-01 -1.4265847E+00
vertex 5.0000000E-01 -9.0817817E-02 -1.4265847E+00
vertex 9.5105654E-01 -1.7274575E-01 -1.2135255E+00
endloop
endfacet
facet normal 1.6674750E-01 -9.1803288E-01 -3.5973746E-01
outer loop
vertex 3.6327127E-01 -2.7950850E-01 -1.2135255E+00
vertex 9.5105654E-01 -1.7274575E-01 -1.2135255E+00
vertex 1.3090169E+00 -2.3776414E-01 -8.8167787E-01
endloop
endfacet
facet normal 1.7535989E-01 -9.6544886E-01 -1.9276252E-01
outer loop
vertex 5.0000000E-01 -3.8471043E-01 -8.8167787E-01
vertex 1.3090169E+00 -2.3776414E-01 -8.8167787E-01
vertex 1.5388417E+00 -2.7950850E-01 -4.6352550E-01
endloop
endfacet
facet normal 1.7837928E-01 -9.8207211E-01 -6.0951363E-02
outer loop
vertex 5.8778524E-01 -4.5225424E-01 -4.6352550E-01
vertex 1.5388417E+00 -2.7950850E-01 -4.6352550E-01
vertex 1.6180340E+00 -2.9389262E-01 0.0000000E+00
endloop
endfacet
facet normal 1.7837931E-01 -9.8207217E-01 6.0951348E-02
outer loop
vertex 6.1803401E-01 -4.7552827E-01 0.0000000E+00
vertex 1.6180340E+00 -2.9389262E-01 0.0000000E+00
vertex 1.5388417E+00 -2.7950850E-01 4.6352550E-01
endloop
endfacet
facet normal 1.7535990E-01 -9.6544886E-01 1.9276254E-01
outer loop
vertex 5.8778524E-01 -4.5225424E-01 4.6352550E-01
vertex 1.5388417E+00 -2.7950850E-01 4.6352550E-01
vertex 1.3090169E+00 -2.3776414E-01 8.8167787E-01
endloop
endfacet
facet normal 1.6674748E-01 -9.1803288E-01 3.5973740E-01
outer loop
vertex 5.0000000E-01 -3.8471043E-01 8.8167787E-01
vertex 1.3090169E+00 -2.3776414E-01 8.8167787E-01
vertex 9.5105654E-01 -1.7274575E-01 1.2135255E+00
endloop
endfacet
facet normal 1.4251088E-01 -7.8459752E-01 6.0340476E-01
outer loop
vertex 3.6327127E-01 -2.7950850E-01 1.2135255E+00
vertex 9.5105654E-01 -1.7274575E-01 1.2135255E+00
vertex 5.0000000E-01 -9.0817817E-02 1.4265847E+00
endloop
endfacet
facet normal 6.7908458E-02 -3.7387192E-01 9.2499089E-01
outer loop
vertex 1.9098301E-01 -1.4694631E-01 1.4265847E+00
vertex 5.0000000E-01 -9.0817817E-02 1.4265847E+00
vertex 0.0000000E+00 0.0000000E+00 1.5000000E+00
endloop
endfacet
facet normal NaN NaN NaN
outer loop
vertex 0.0000000E+00 0.0000000E+00 -1.5000000E+00
vertex 0.0000000E+00 0.0000000E+00 -1.5000000E+00
vertex 6.1803401E-01 0.0000000E+00 -1.4265847E+00
endloop
endfacet
facet normal 3.2381481E-01 -4.2085531E-01 -8.4736347E-01
outer loop
vertex 5.0000000E-01 -9.0817817E-02 -1.4265847E+00
vertex 6.1803401E-01 0.0000000E+00 -1.4265847E+00
vertex 1.1755705E+00 0.0000000E+00 -1.2135255E+00
endloop
endfacet
facet normal 4.7314569E-01 -6.1493731E-01 -6.3086081E-01
outer loop
vertex 9.5105654E-01 -1.7274575E-01 -1.2135255E+00
vertex 1.1755705E+00 0.0000000E+00 -1.2135255E+00
vertex 1.6180340E+00 0.0000000E+00 -8.8167787E-01
endloop
endfacet
facet normal 5.6337309E-01 -7.3220414E-01 -3.8273728E-01
outer loop
vertex 1.3090169E+00 -2.3776414E-01 -8.8167787E-01
vertex 1.6180340E+00 0.0000000E+00 -8.8167787E-01
vertex 1.9021131E+00 0.0000000E+00 -4.6352550E-01
endloop
endfacet
facet normal 6.0481095E-01 -7.8606009E-01 -1.2772344E-01
outer loop
vertex 1.5388417E+00 -2.7950850E-01 -4.6352550E-01
vertex 1.9021131E+00 0.0000000E+00 -4.6352550E-01
vertex 2.0000000E+00 0.0000000E+00 0.0000000E+00
endloop
endfacet
facet normal 6.0481101E-01 -7.8605998E-01 1.2772346E-01
outer loop
vertex 1.6180340E+00 -2.9389262E-01 0.0000000E+00
vertex 2.0000000E+00 0.0000000E+00 0.0000000E+00
vertex 1.9021131E+00 0.0000000E+00 4.6352550E-01
endloop
endfacet
facet normal 5.6337309E-01 -7.3220426E-01 3.8273728E-01
outer loop
vertex 1.5388417E+00 -2.7950850E-01 4.6352550E-01
vertex 1.9021131E+00 0.0000000E+00 4.6352550E-01
vertex 1.6180340E+00 0.0000000E+00 8.8167787E-01
endloop
endfacet
facet normal 4.7314560E-01 -6.1493742E-01 6.3086075E-01
outer loop
vertex 1.3090169E+00 -2.3776414E-01 8.8167787E-01
vertex 1.6180340E+00 0.0000000E+00 8.8167787E-01
vertex 1.1755705E+00 0.0000000E+00 1.2135255E+00
endloop
endfacet
facet normal 3.2381478E-01 -4.2085513E-01 8.4736347E-01
outer loop
vertex 9.5105654E-01 -1.7274575E-01 1.2135255E+00
vertex 1.1755705E+00 0.0000000E+00 1.2135255E+00
vertex 6.1803401E-01 0.0000000E+00 1.4265847E+00
endloop
endfacet
facet normal 1.1659683E-01 -1.5153845E-01 9.8155051E-01
outer loop
vertex 5.0000000E-01 -9.0817817E-02 1.4265847E+00
vertex 6.1803401E-01 0.0000000E+00 1.4265847E+00
vertex 0.0000000E+00 0.0000000E+00 1.5000000E+00
endloop
endfacet
facet normal NaN NaN NaN
outer loop
vertex 0.0000000E+00 0.0000000E+00 -1.5000000E+00
vertex 0.0000000E+00 0.0000000E+00 -1.5000000E+00
vertex 5.0000000E-01 9.0817817E-02 -1.4265847E+00
endloop
endfacet
facet normal 3.2381475E-01 4.2085525E-01 -8.4736347E-01
outer loop
vertex 6.1803401E-01 0.0000000E+00 -1.4265847E+00
vertex 5.0000000E-01 9.0817817E-02 -1.4265847E+00
vertex 9.5105654E-01 1.7274575E-01 -1.2135255E+00
endloop
endfacet
facet normal 4.7314572E-01 6.1493737E-01 -6.3086081E-01
outer loop
vertex 1.1755705E+00 0.0000000E+00 -1.2135255E+00
vertex 9.5105654E-01 1.7274575E-01 -1.2135255E+00
vertex 1.3090169E+00 2.3776414E-01 -8.8167787E-01
endloop
endfacet
facet normal 5.6337309E-01 7.3220414E-01 -3.8273728E-01
outer loop
vertex 1.6180340E+00 0.0000000E+00 -8.8167787E-01
vertex 1.3090169E+00 2.3776414E-01 -8.8167787E-01
vertex 1.5388417E+00 2.7950850E-01 -4.6352550E-01
endloop
endfacet
facet normal 6.0481095E-01 7.8606009E-01 -1.2772362E-01
outer loop
vertex 1.9021131E+00 0.0000000E+00 -4.6352550E-01
vertex 1.5388417E+00 2.7950850E-01 -4.6352550E-01
vertex 1.6180340E+00 2.9389262E-01 0.0000000E+00
endloop
endfacet
facet normal 6.0481101E-01 7.8605998E-01 1.2772356E-01
outer loop
vertex 2.0000000E+00 0.0000000E+00 0.0000000E+00
vertex 1.6180340E+00 2.9389262E-01 0.0000000E+00
vertex 1.5388417E+00 2.7950850E-01 4.6352550E-01
endloop
endfacet
facet normal 5.6337309E-01 7.3220426E-01 3.8273731E-01
outer loop
vertex 1.9021131E+00 0.0000000E+00 4.6352550E-01
vertex 1.5388417E+00 2.7950850E-01 4.6352550E-01
vertex 1.3090169E+00 2.3776414E-01 8.8167787E-01
endloop
endfacet
facet normal 4.7314566E-01 6.1493748E-01 6.3086063E-01
outer loop
vertex 1.6180340E+00 0.0000000E+00 8.8167787E-01
vertex 1.3090169E+00 2.3776414E-01 8.8167787E-01
vertex 9.5105654E-01 1.7274575E-01 1.2135255E+00
endloop
endfacet
facet normal 3.2381478E-01 4.2085513E-01 8.4736347E-01
outer loop
vertex 1.1755705E+00 0.0000000E+00 1.2135255E+00
vertex 9.5105654E-01 1.7274575E-01 1.2135255E+00
vertex 5.0000000E-01 9.0817817E-02 1.4265847E+00
endloop
endfacet
facet normal 1.1659683E-01 1.5153845E-01 9.8155051E-01
outer loop
vertex 6.1803401E-01 0.0000000E+00 1.4265847E+00
vertex 5.0000000E-01 9.0817817E-02 1.4265847E+00
vertex 0.0000000E+00 0.0000000E+00 1.5000000E+00
endloop
endfacet
facet normal NaN NaN NaN
outer loop
vertex 0.0000000E+00 0.0000000E+00 -1.5000000E+00
vertex 0.0000000E+00 0.0000000E+00 -1.5000000E+00
vertex 1.9098301E-01 1.4694631E-01 -1.4265847E+00
endloop
endfacet
facet normal 1.4251086E-01 7.8459758E-01 -6.0340476E-01
outer loop
vertex 5.0000000E-01 9.0817817E-02 -1.4265847E+00
vertex 1.9098301E-01 1.4694631E-01 -1.4265847E+00
vertex 3.6327127E-01 2.7950850E-01 -1.2135255E+00
endloop
endfacet
facet normal 1.6674750E-01 9.1803288E-01 -3.5973734E-01
outer loop
vertex 9.5105654E-01 1.7274575E-01 -1.2135255E+00
vertex 3.6327127E-01 2.7950850E-01 -1.2135255E+00
vertex 5.0000000E-01 3.8471043E-01 -8.8167787E-01
endloop
endfacet
facet normal 1.7535989E-01 9.6544886E-01 -1.9276249E-01
outer loop
vertex 1.3090169E+00 2.3776414E-01 -8.8167787E-01
vertex 5.0000000E-01 3.8471043E-01 -8.8167787E-01
vertex 5.8778524E-01 4.5225424E-01 -4.6352550E-01
endloop
endfacet
facet normal 1.7837928E-01 9.8207211E-01 -6.0951397E-02
outer loop
vertex 1.5388417E+00 2.7950850E-01 -4.6352550E-01
vertex 5.8778524E-01 4.5225424E-01 -4.6352550E-01
vertex 6.1803401E-01 4.7552827E-01 0.0000000E+00
endloop
endfacet
facet normal 1.7837931E-01 9.8207217E-01 6.0951408E-02
outer loop
vertex 1.6180340E+00 2.9389262E-01 0.0000000E+00
vertex 6.1803401E-01 4.7552827E-01 0.0000000E+00
vertex 5.8778524E-01 4.5225424E-01 4.6352550E-01
endloop
endfacet
facet normal 1.7535990E-01 9.6544886E-01 1.9276251E-01
outer loop
vertex 1.5388417E+00 2.7950850E-01 4.6352550E-01
vertex 5.8778524E-01 4.5225424E-01 4.6352550E-01
vertex 5.0000000E-01 3.8471043E-01 8.8167787E-01
endloop
endfacet
facet normal 1.6674748E-01 9.1803288E-01 3.5973740E-01
outer loop
vertex 1.3090169E+00 2.3776414E-01 8.8167787E-01
vertex 5.0000000E-01 3.8471043E-01 8.8167787E-01
vertex 3.6327127E-01 2.7950850E-01 1.2135255E+00
endloop
endfacet
facet normal 1.4251088E-01 7.8459752E-01 6.0340476E-01
outer loop
vertex 9.5105654E-01 1.7274575E-01 1.2135255E+00
vertex 3.6327127E-01 2.7950850E-01 1.2135255E+00
vertex 1.9098301E-01 1.4694631E-01 1.4265847E+00
endloop
endfacet
facet normal 6.7908466E-02 3.7387195E-01 9.2499095E-01
outer loop
vertex 5.0000000E-01 9.0817817E-02 1.4265847E+00
vertex 1.9098301E-01 1.4694631E-01 1.4265847E+00
vertex 0.0000000E+00 0.0000000E+00 1.5000000E+00
endloop
endfacet
facet normal NaN NaN NaN
outer loop
vertex 0.0000000E+00 0.0000000E+00 -1.5000000E+00
vertex 0.0000000E+00 0.0000000E+00 -1.5000000E+00
vertex -1.9098301E-01 1.4694631E-01 -1.4265847E+00
endloop
endfacet
facet normal 0.0000000E+00 8.4907079E-01 -5.2827895E-01
outer loop
vertex 1.9098301E-01 1.4694631E-01 -1.4265847E+00
vertex -1.9098301E-01 1.4694631E-01 -1.4265847E+00
vertex -3.6327127E-01 2.7950850E-01 -1.2135255E+00
endloop
endfacet
facet normal 0.0000000E+00 9.5324564E-01 -3.0219671E-01
outer loop
vertex 3.6327127E-01 2.7950850E-01 -1.2135255E+00
vertex -3.6327127E-01 2.7950850E-01 -1.2135255E+00
vertex -5.0000000E-01 3.8471043E-01 -8.8167787E-01
endloop
endfacet
facet normal 0.0000000E+00 9.8720402E-01 -1.5946224E-01
outer loop
vertex 5.0000000E-01 3.8471043E-01 -8.8167787E-01
vertex -5.0000000E-01 3.8471043E-01 -8.8167787E-01
vertex -5.8778524E-01 4.5225424E-01 -4.6352550E-01
endloop
endfacet
facet normal 0.0000000E+00 9.9874181E-01 -5.0147727E-02
outer loop
vertex 5.8778524E-01 4.5225424E-01 -4.6352550E-01
vertex -5.8778524E-01 4.5225424E-01 -4.6352550E-01
vertex -6.1803401E-01 4.7552827E-01 0.0000000E+00
endloop
endfacet
facet normal 0.0000000E+00 9.9874187E-01 5.0147731E-02
outer loop
vertex 6.1803401E-01 4.7552827E-01 0.0000000E+00
vertex -6.1803401E-01 4.7552827E-01 0.0000000E+00
vertex -5.8778524E-01 4.5225424E-01 4.6352550E-01
endloop
endfacet
facet normal 0.0000000E+00 9.8720407E-01 1.5946226E-01
outer loop
vertex 5.8778524E-01 4.5225424E-01 4.6352550E-01
vertex -5.8778524E-01 4.5225424E-01 4.6352550E-01
vertex -5.0000000E-01 3.8471043E-01 8.8167787E-01
endloop
endfacet
facet normal 0.0000000E+00 9.5324564E-01 3.0219671E-01
outer loop
vertex 5.0000000E-01 3.8471043E-01 8.8167787E-01
vertex -5.0000000E-01 3.8471043E-01 8.8167787E-01
vertex -3.6327127E-01 2.7950850E-01 1.2135255E+00
endloop
endfacet
facet normal 0.0000000E+00 8.4907079E-01 5.2827895E-01
outer loop
vertex 3.6327127E-01 2.7950850E-01 1.2135255E+00
vertex -3.6327127E-01 2.7950850E-01 1.2135255E+00
vertex -1.9098301E-01 1.4694631E-01 1.4265847E+00
endloop
endfacet
facet normal 0.0000000E+00 4.4693172E-01 8.9456809E-01
outer loop
vertex 1.9098301E-01 1.4694631E-01 1.4265847E+00
vertex -1.9098301E-01 1.4694631E-01 1.4265847E+00
vertex 0.0000000E+00 0.0000000E+00 1.5000000E+00
endloop
endfacet
facet normal NaN NaN NaN
outer loop
vertex 0.0000000E+00 0.0000000E+00 -1.5000000E+00
vertex 0.0000000E+00 0.0000000E+00 -1.5000000E+00
vertex -5.0000000E-01 9.0817817E-02 -1.4265847E+00
endloop
endfacet
facet normal -1.4251086E-01 7.8459758E-01 -6.0340470E-01
outer loop
vertex -1.9098301E-01 1.4694631E-01 -1.4265847E+00
vertex -5.0000000E-01 9.0817817E-02 -1.4265847E+00
vertex -9.5105654E-01 1.7274575E-01 -1.2135255E+00
endloop
endfacet
facet normal -1.6674750E-01 9.1803288E-01 -3.5973746E-01
outer loop
vertex -3.6327127E-01 2.7950850E-01 -1.2135255E+00
vertex -9.5105654E-01 1.7274575E-01 -1.2135255E+00
vertex -1.3090169E+00 2.3776414E-01 -8.8167787E-01
endloop
endfacet
facet normal -1.7535989E-01 9.6544886E-01 -1.9276252E-01
outer loop
vertex -5.0000000E-01 3.8471043E-01 -8.8167787E-01
vertex -1.3090169E+00 2.3776414E-01 -8.8167787E-01
vertex -1.5388417E+00 2.7950850E-01 -4.6352550E-01
endloop
endfacet
facet normal -1.7837928E-01 9.8207211E-01 -6.0951363E-02
outer loop
vertex -5.8778524E-01 4.5225424E-01 -4.6352550E-01
vertex -1.5388417E+00 2.7950850E-01 -4.6352550E-01
vertex -1.6180340E+00 2.9389262E-01 0.0000000E+00
endloop
endfacet
facet normal -1.7837931E-01 9.8207217E-01 6.0951348E-02
outer loop
vertex -6.1803401E-01 4.7552827E-01 0.0000000E+00
vertex -1.6180340E+00 2.9389262E-01 0.0000000E+00
vertex -1.5388417E+00 2.7950850E-01 4.6352550E-01
endloop
endfacet
facet normal -1.7535990E-01 9.6544886E-01 1.9276254E-01
outer loop
vertex -5.8778524E-01 4.5225424E-01 4.6352550E-01
vertex -1.5388417E+00 2.7950850E-01 4.6352550E-01
vertex -1.3090169E+00 2.3776414E-01 8.8167787E-01
endloop
endfacet
facet normal -1.6674748E-01 9.1803288E-01 3.5973740E-01
outer loop
vertex -5.0000000E-01 3.8471043E-01 8.8167787E-01
vertex -1.3090169E+00 2.3776414E-01 8.8167787E-01
vertex -9.5105654E-01 1.7274575E-01 1.2135255E+00
endloop
endfacet
facet normal -1.4251088E-01 7.8459752E-01 6.0340476E-01
outer loop
vertex -3.6327127E-01 2.7950850E-01 1.2135255E+00
vertex -9.5105654E-01 1.7274575E-01 1.2135255E+00
vertex -5.0000000E-01 9.0817817E-02 1.4265847E+00
endloop
endfacet
facet normal -6.7908458E-02 3.7387192E-01 9.2499089E-01
outer loop
vertex -1.9098301E-01 1.4694631E-01 1.4265847E+00
vertex -5.0000000E-01 9.0817817E-02 1.4265847E+00
vertex 0.0000000E+00 0.0000000E+00 1.5000000E+00
endloop
endfacet
facet normal NaN NaN NaN
outer loop
vertex 0.0000000E+00 0.0000000E+00 -1.5000000E+00
vertex 0.0000000E+00 0.0000000E+00 -1.5000000E+00
vertex -6.1803401E-01 0.0000000E+00 -1.4265847E+00
endloop
endfacet
facet normal -3.2381481E-01 4.2085531E-01 -8.4736347E-01
outer loop
vertex -5.0000000E-01 9.0817817E-02 -1.4265847E+00
vertex -6.1803401E-01 0.0000000E+00 -1.4265847E+00
vertex -1.1755705E+00 0.0000000E+00 -1.2135255E+00
endloop
endfacet
facet normal -4.7314569E-01 6.1493731E-01 -6.3086081E-01
outer loop
vertex -9.5105654E-01 1.7274575E-01 -1.2135255E+00
vertex -1.1755705E+00 0.0000000E+00 -1.2135255E+00
vertex -1.6180340E+00 0.0000000E+00 -8.8167787E-01
endloop
endfacet
facet normal -5.6337309E-01 7.3220414E-01 -3.8273728E-01
outer loop
vertex -1.3090169E+00 2.3776414E-01 -8.8167787E-01
vertex -1.6180340E+00 0.0000000E+00 -8.8167787E-01
vertex -1.9021131E+00 0.0000000E+00 -4.6352550E-01
endloop
endfacet
facet normal -6.0481095E-01 7.8606009E-01 -1.2772344E-01
outer loop
vertex -1.5388417E+00 2.7950850E-01 -4.6352550E-01
vertex -1.9021131E+00 0.0000000E+00 -4.6352550E-01
vertex -2.0000000E+00 0.0000000E+00 0.0000000E+00
endloop
endfacet
facet normal -6.0481101E-01 7.8605998E-01 1.2772346E-01
outer loop
vertex -1.6180340E+00 2.9389262E-01 0.0000000E+00
vertex -2.0000000E+00 0.0000000E+00 0.0000000E+00
vertex -1.9021131E+00 0.0000000E+00 4.6352550E-01
endloop
endfacet
facet normal -5.6337309E-01 7.3220426E-01 3.8273728E-01
outer loop
vertex -1.5388417E+00 2.7950850E-01 4.6352550E-01
vertex -1.9021131E+00 0.0000000E+00 4.6352550E-01
vertex -1.6180340E+00 0.0000000E+00 8.8167787E-01
endloop
endfacet
facet normal -4.7314560E-01 6.1493742E-01 6.3086075E-01
outer loop
vertex -1.3090169E+00 2.3776414E-01 8.8167787E-01
vertex -1.6180340E+00 0.0000000E+00 8.8167787E-01
vertex -1.1755705E+00 0.0000000E+00 1.2135255E+00
endloop
endfacet
facet normal -3.2381478E-01 4.2085513E-01 8.4736347E-01
outer loop
vertex -9.5105654E-01 1.7274575E-01 1.2135255E+00
vertex -1.1755705E+00 0.0000000E+00 1.2135255E+00
vertex -6.1803401E-01 0.0000000E+00 1.4265847E+00
endloop
endfacet
facet normal -1.1659683E-01 1.5153845E-01 9.8155051E-01
outer loop
vertex -5.0000000E-01 9.0817817E-02 1.4265847E+00
vertex -6.1803401E-01 0.0000000E+00 1.4265847E+00
vertex 0.0000000E+00 0.0000000E+00 1.5000000E+00
endloop
endfacet
facet normal -1.1659683E-01 -1.5153843E-01 -9.8155051E-01
outer loop
vertex 0.0000000E+00 0.0000000E+00 -1.5000000E+00
vertex -5.0000000E-01 -9.0817817E-02 -1.4265847E+00
vertex -6.1803401E-01 0.0000000E+00 -1.4265847E+00
endloop
endfacet
facet normal -3.2381478E-01 -4.2085516E-01 -8.4736347E-01
outer loop
vertex -6.1803401E-01 0.0000000E+00 -1.4265847E+00
vertex -9.5105654E-01 -1.7274575E-01 -1.2135255E+00
vertex -1.1755705E+00 0.0000000E+00 -1.2135255E+00
endloop
endfacet
facet normal -4.7314560E-01 -6.1493737E-01 -6.3086069E-01
outer loop
vertex -1.1755705E+00 0.0000000E+00 -1.2135255E+00
vertex -1.3090169E+00 -2.3776414E-01 -8.8167787E-01
vertex -1.6180340E+00 0.0000000E+00 -8.8167787E-01
endloop
endfacet
facet normal -5.6337309E-01 -7.3220426E-01 -3.8273728E-01
outer loop
vertex -1.6180340E+00 0.0000000E+00 -8.8167787E-01
vertex -1.5388417E+00 -2.7950850E-01 -4.6352550E-01
vertex -1.9021131E+00 0.0000000E+00 -4.6352550E-01
endloop
endfacet
facet normal -6.0481101E-01 -7.8605998E-01 -1.2772347E-01
outer loop
vertex -1.9021131E+00 0.0000000E+00 -4.6352550E-01
vertex -1.6180340E+00 -2.9389262E-01 0.0000000E+00
vertex -2.0000000E+00 0.0000000E+00 0.0000000E+00
endloop
endfacet
facet normal -6.0481095E-01 -7.8606009E-01 1.2772346E-01
outer loop
vertex -2.0000000E+00 0.0000000E+00 0.0000000E+00
vertex -1.5388417E+00 -2.7950850E-01 4.6352550E-01
vertex -1.9021131E+00 0.0000000E+00 4.6352550E-01
endloop
endfacet
facet normal -5.6337303E-01 -7.3220420E-01 3.8273725E-01
outer loop
vertex -1.9021131E+00 0.0000000E+00 4.6352550E-01
vertex -1.3090169E+00 -2.3776414E-01 8.8167787E-01
vertex -1.6180340E+00 0.0000000E+00 8.8167787E-01
endloop
endfacet
facet normal -4.7314569E-01 -6.1493737E-01 6.3086081E-01
outer loop
vertex -1.6180340E+00 0.0000000E+00 8.8167787E-01
vertex -9.5105654E-01 -1.7274575E-01 1.2135255E+00
vertex -1.1755705E+00 0.0000000E+00 1.2135255E+00
endloop
endfacet
facet normal -3.2381481E-01 -4.2085528E-01 8.4736347E-01
outer loop
vertex -1.1755705E+00 0.0000000E+00 1.2135255E+00
vertex -5.0000000E-01 -9.0817817E-02 1.4265847E+00
vertex -6.1803401E-01 0.0000000E+00 1.4265847E+00
endloop
endfacet
facet normal NaN NaN NaN
outer loop
vertex -6.1803401E-01 0.0000000E+00 1.4265847E+00
vertex 0.0000000E+00 0.0000000E+00 1.5000000E+00
vertex 0.0000000E+00 0.0000000E+00 1.5000000E+00
endloop
endfacet
facet normal -6.7908473E-02 -3.7387192E-01 -9.2499095E-01
outer loop
vertex 0.0000000E+00 0.0000000E+00 -1.5000000E+00
vertex -1.9098301E-01 -1.4694631E-01 -1.4265847E+00
vertex -5.0000000E-01 -9.0817817E-02 -1.4265847E+00
endloop
endfacet
facet normal -1.4251088E-01 -7.8459758E-01 -6.0340476E-01
outer loop
vertex -5.0000000E-01 -9.0817817E-02 -1.4265847E+00
vertex -3.6327127E-01 -2.7950850E-01 -1.2135255E+00
vertex -9.5105654E-01 -1.7274575E-01 -1.2135255E+00
endloop
endfacet
facet normal -1.6674748E-01 -9.1803288E-01 -3.5973740E-01
outer loop
vertex -9.5105654E-01 -1.7274575E-01 -1.2135255E+00
vertex -5.0000000E-01 -3.8471043E-01 -8.8167787E-01
vertex -1.3090169E+00 -2.3776414E-01 -8.8167787E-01
endloop
endfacet
facet normal -1.7535990E-01 -9.6544886E-01 -1.9276251E-01
outer loop
vertex -1.3090169E+00 -2.3776414E-01 -8.8167787E-01
vertex -5.8778524E-01 -4.5225424E-01 -4.6352550E-01
vertex -1.5388417E+00 -2.7950850E-01 -4.6352550E-01
endloop
endfacet
facet normal -1.7837933E-01 -9.8207217E-01 -6.0951363E-02
outer loop
vertex -1.5388417E+00 -2.7950850E-01 -4.6352550E-01
vertex -6.1803401E-01 -4.7552827E-01 0.0000000E+00
vertex -1.6180340E+00 -2.9389262E-01 0.0000000E+00
endloop
endfacet
facet normal -1.7837928E-01 -9.8207211E-01 6.0951352E-02
outer loop
vertex -1.6180340E+00 -2.9389262E-01 0.0000000E+00
vertex -5.8778524E-01 -4.5225424E-01 4.6352550E-01
vertex -1.5388417E+00 -2.7950850E-01 4.6352550E-01
endloop
endfacet
facet normal -1.7535990E-01 -9.6544886E-01 1.9276249E-01
outer loop
vertex -1.5388417E+00 -2.7950850E-01 4.6352550E-01
vertex -5.0000000E-01 -3.8471043E-01 8.8167787E-01
vertex -1.3090169E+00 -2.3776414E-01 8.8167787E-01
endloop
endfacet
facet normal -1.6674747E-01 -9.1803282E-01 3.5973734E-01
outer loop
vertex -1.3090169E+00 -2.3776414E-01 8.8167787E-01
vertex -3.6327127E-01 -2.7950850E-01 1.2135255E+00
vertex -9.5105654E-01 -1.7274575E-01 1.2135255E+00
endloop
endfacet
facet normal -1.4251088E-01 -7.8459758E-01 6.0340470E-01
outer loop
vertex -9.5105654E-01 -1.7274575E-01 1.2135255E+00
vertex -1.9098301E-01 -1.4694631E-01 1.4265847E+00
vertex -5.0000000E-01 -9.0817817E-02 1.4265847E+00
endloop
endfacet
facet normal NaN NaN NaN
outer loop
vertex -5.0000000E-01 -9.0817817E-02 1.4265847E+00
vertex 0.0000000E+00 0.0000000E+00 1.5000000E+00
vertex 0.0000000E+00 0.0000000E+00 1.5000000E+00
endloop
endfacet
facet normal 0.0000000E+00 -4.4693172E-01 -8.9456809E-01
outer loop
vertex 0.0000000E+00 0.0000000E+00 -1.5000000E+00
vertex 1.9098301E-01 -1.4694631E-01 -1.4265847E+00
vertex -1.9098301E-01 -1.4694631E-01 -1.4265847E+00
endloop
endfacet
facet normal 0.0000000E+00 -8.4907079E-01 -5.2827895E-01
outer loop
vertex -1.9098301E-01 -1.4694631E-01 -1.4265847E+00
vertex 3.6327127E-01 -2.7950850E-01 -1.2135255E+00
vertex -3.6327127E-01 -2.7950850E-01 -1.2135255E+00
endloop
endfacet
facet normal 0.0000000E+00 -9.5324564E-01 -3.0219671E-01
outer loop
vertex -3.6327127E-01 -2.7950850E-01 -1.2135255E+00
vertex 5.0000000E-01 -3.8471043E-01 -8.8167787E-01
vertex -5.0000000E-01 -3.8471043E-01 -8.8167787E-01
endloop
endfacet
facet normal 0.0000000E+00 -9.8720407E-01 -1.5946226E-01
outer loop
vertex -5.0000000E-01 -3.8471043E-01 -8.8167787E-01
vertex 5.8778524E-01 -4.5225424E-01 -4.6352550E-01
vertex -5.8778524E-01 -4.5225424E-01 -4.6352550E-01
endloop
endfacet
facet normal 0.0000000E+00 -9.9874187E-01 -5.0147731E-02
outer loop
vertex -5.8778524E-01 -4.5225424E-01 -4.6352550E-01
vertex 6.1803401E-01 -4.7552827E-01 0.0000000E+00
vertex -6.1803401E-01 -4.7552827E-01 0.0000000E+00
endloop
endfacet
facet normal 0.0000000E+00 -9.9874181E-01 5.0147735E-02
outer loop
vertex -6.1803401E-01 -4.7552827E-01 0.0000000E+00
vertex 5.8778524E-01 -4.5225424E-01 4.6352550E-01
vertex -5.8778524E-01 -4.5225424E-01 4.6352550E-01
endloop
endfacet
facet normal 0.0000000E+00 -9.8720402E-01 1.5946224E-01
outer loop
vertex -5.8778524E-01 -4.5225424E-01 4.6352550E-01
vertex 5.0000000E-01 -3.8471043E-01 8.8167787E-01
vertex -5.0000000E-01 -3.8471043E-01 8.8167787E-01
endloop
endfacet
facet normal 0.0000000E+00 -9.5324564E-01 3.0219671E-01
outer loop
vertex -5.0000000E-01 -3.8471043E-01 8.8167787E-01
vertex 3.6327127E-01 -2.7950850E-01 1.2135255E+00
vertex -3.6327127E-01 -2.7950850E-01 1.2135255E+00
endloop
endfacet
facet normal 0.0000000E+00 -8.4907079E-01 5.2827895E-01
outer loop
vertex -3.6327127E-01 -2.7950850E-01 1.2135255E+00
vertex 1.9098301E-01 -1.4694631E-01 1.4265847E+00
vertex -1.9098301E-01 -1.4694631E-01 1.4265847E+00
endloop
endfacet
facet normal NaN NaN NaN
outer loop
vertex -1.9098301E-01 -1.4694631E-01 1.4265847E+00
vertex 0.0000000E+00 0.0000000E+00 1.5000000E+00
vertex 0.0000000E+00 0.0000000E+00 1.5000000E+00
endloop
endfacet
facet normal 6.7908473E-02 -3.7387192E-01 -9.2499095E-01
outer loop
vertex 0.0000000E+00 0.0000000E+00 -1.5000000E+00
vertex 5.0000000E-01 -9.0817817E-02 -1.4265847E+00
vertex 1.9098301E-01 -1.4694631E-01 -1.4265847E+00
endloop
endfacet
facet normal 1.4251088E-01 -7.8459758E-01 -6.0340470E-01
outer loop
vertex 1.9098301E-01 -1.4694631E-01 -1.4265847E+00
vertex 9.5105654E-01 -1.7274575E-01 -1.2135255E+00
vertex 3.6327127E-01 -2.7950850E-01 -1.2135255E+00
endloop
endfacet
facet normal 1.6674745E-01 -9.1803288E-01 -3.5973731E-01
outer loop
vertex 3.6327127E-01 -2.7950850E-01 -1.2135255E+00
vertex 1.3090169E+00 -2.3776414E-01 -8.8167787E-01
vertex 5.0000000E-01 -3.8471043E-01 -8.8167787E-01
endloop
endfacet
facet normal 1.7535990E-01 -9.6544886E-01 -1.9276254E-01
outer loop
vertex 5.0000000E-01 -3.8471043E-01 -8.8167787E-01
vertex 1.5388417E+00 -2.7950850E-01 -4.6352550E-01
vertex 5.8778524E-01 -4.5225424E-01 -4.6352550E-01
endloop
endfacet
facet normal 1.7837931E-01 -9.8207217E-01 -6.0951415E-02
outer loop
vertex 5.8778524E-01 -4.5225424E-01 -4.6352550E-01
vertex 1.6180340E+00 -2.9389262E-01 0.0000000E+00
vertex 6.1803401E-01 -4.7552827E-01 0.0000000E+00
endloop
endfacet
facet normal 1.7837930E-01 -9.8207211E-01 6.0951408E-02
outer loop
vertex 6.1803401E-01 -4.7552827E-01 0.0000000E+00
vertex 1.5388417E+00 -2.7950850E-01 4.6352550E-01
vertex 5.8778524E-01 -4.5225424E-01 4.6352550E-01
endloop
endfacet
facet normal 1.7535990E-01 -9.6544886E-01 1.9276252E-01
outer loop
vertex 5.8778524E-01 -4.5225424E-01 4.6352550E-01
vertex 1.3090169E+00 -2.3776414E-01 8.8167787E-01
vertex 5.0000000E-01 -3.8471043E-01 8.8167787E-01
endloop
endfacet
facet normal 1.6674748E-01 -9.1803282E-01 3.5973734E-01
outer loop
vertex 5.0000000E-01 -3.8471043E-01 8.8167787E-01
vertex 9.5105654E-01 -1.7274575E-01 1.2135255E+00
vertex 3.6327127E-01 -2.7950850E-01 1.2135255E+00
endloop
endfacet
facet normal 1.4251091E-01 -7.8459758E-01 6.0340476E-01
outer loop
vertex 3.6327127E-01 -2.7950850E-01 1.2135255E+00
vertex 5.0000000E-01 -9.0817817E-02 1.4265847E+00
vertex 1.9098301E-01 -1.4694631E-01 1.4265847E+00
endloop
endfacet
facet normal NaN NaN NaN
outer loop
vertex 1.9098301E-01 -1.4694631E-01 1.4265847E+00
vertex 0.0000000E+00 0.0000000E+00 1.5000000E+00
vertex 0.0000000E+00 0.0000000E+00 1.5000000E+00
endloop
endfacet
facet normal 1.1659683E-01 -1.5153843E-01 -9.8155051E-01
outer loop
vertex 0.0000000E+00 0.0000000E+00 -1.5000000E+00
vertex 6.1803401E-01 0.0000000E+00 -1.4265847E+00
vertex 5.0000000E-01 -9.0817817E-02 -1.4265847E+00
endloop
endfacet
facet normal 3.2381481E-01 -4.2085516E-01 -8.4736347E-01
outer loop
vertex 5.0000000E-01 -9.0817817E-02 -1.4265847E+00
vertex 1.1755705E+00 0.0000000E+00 -1.2135255E+00
vertex 9.5105654E-01 -1.7274575E-01 -1.2135255E+00
endloop
endfacet
facet normal 4.7314560E-01 -6.1493748E-01 -6.3086069E-01
outer loop
vertex 9.5105654E-01 -1.7274575E-01 -1.2135255E+00
vertex 1.6180340E+00 0.0000000E+00 -8.8167787E-01
vertex 1.3090169E+00 -2.3776414E-01 -8.8167787E-01
endloop
endfacet
facet normal 5.6337309E-01 -7.3220426E-01 -3.8273728E-01
outer loop
vertex 1.3090169E+00 -2.3776414E-01 -8.8167787E-01
vertex 1.9021131E+00 0.0000000E+00 -4.6352550E-01
vertex 1.5388417E+00 -2.7950850E-01 -4.6352550E-01
endloop
endfacet
facet normal 6.0481101E-01 -7.8605998E-01 -1.2772359E-01
outer loop
vertex 1.5388417E+00 -2.7950850E-01 -4.6352550E-01
vertex 2.0000000E+00 0.0000000E+00 0.0000000E+00
vertex 1.6180340E+00 -2.9389262E-01 0.0000000E+00
endloop
endfacet
facet normal 6.0481095E-01 -7.8606009E-01 1.2772359E-01
outer loop
vertex 1.6180340E+00 -2.9389262E-01 0.0000000E+00
vertex 1.9021131E+00 0.0000000E+00 4.6352550E-01
vertex 1.5388417E+00 -2.7950850E-01 4.6352550E-01
endloop
endfacet
facet normal 5.6337303E-01 -7.3220420E-01 3.8273725E-01
outer loop
vertex 1.5388417E+00 -2.7950850E-01 4.6352550E-01
vertex 1.6180340E+00 0.0000000E+00 8.8167787E-01
vertex 1.3090169E+00 -2.3776414E-01 8.8167787E-01
endloop
endfacet
facet normal 4.7314572E-01 -6.1493731E-01 6.3086069E-01
outer loop
vertex 1.3090169E+00 -2.3776414E-01 8.8167787E-01
vertex 1.1755705E+00 0.0000000E+00 1.2135255E+00
vertex 9.5105654E-01 -1.7274575E-01 1.2135255E+00
endloop
endfacet
facet normal 3.2381478E-01 -4.2085528E-01 8.4736353E-01
outer loop
vertex 9.5105654E-01 -1.7274575E-01 1.2135255E+00
vertex 6.1803401E-01 0.0000000E+00 1.4265847E+00
vertex 5.0000000E-01 -9.0817817E-02 1.4265847E+00
endloop
endfacet
facet normal NaN NaN NaN
outer loop
vertex 5.0000000E-01 -9.0817817E-02 1.4265847E+00
vertex 0.0000000E+00 0.0000000E+00 1.5000000E+00
vertex 0.0000000E+00 0.0000000E+00 1.5000000E+00
endloop
endfacet
facet normal 1.1659683E-01 1.5153843E-01 -9.8155051E-01
outer loop
vertex 0.0000000E+00 0.0000000E+00 -1.5000000E+00
vertex 5.0000000E-01 9.0817817E-02 -1.4265847E+00
vertex 6.1803401E-01 0.0000000E+00 -1.4265847E+00
endloop
endfacet
facet normal 3.2381478E-01 4.2085516E-01 -8.4736347E-01
outer loop
vertex 6.1803401E-01 0.0000000E+00 -1.4265847E+00
vertex 9.5105654E-01 1.7274575E-01 -1.2135255E+00
vertex 1.1755705E+00 0.0000000E+00 -1.2135255E+00
endloop
endfacet
facet normal 4.7314560E-01 6.1493737E-01 -6.3086069E-01
outer loop
vertex 1.1755705E+00 0.0000000E+00 -1.2135255E+00
vertex 1.3090169E+00 2.3776414E-01 -8.8167787E-01
vertex 1.6180340E+00 0.0000000E+00 -8.8167787E-01
endloop
endfacet
facet normal 5.6337309E-01 7.3220426E-01 -3.8273728E-01
outer loop
vertex 1.6180340E+00 0.0000000E+00 -8.8167787E-01
vertex 1.5388417E+00 2.7950850E-01 -4.6352550E-01
vertex 1.9021131E+00 0.0000000E+00 -4.6352550E-01
endloop
endfacet
facet normal 6.0481101E-01 7.8605998E-01 -1.2772347E-01
outer loop
vertex 1.9021131E+00 0.0000000E+00 -4.6352550E-01
vertex 1.6180340E+00 2.9389262E-01 0.0000000E+00
vertex 2.0000000E+00 0.0000000E+00 0.0000000E+00
endloop
endfacet
facet normal 6.0481095E-01 7.8606009E-01 1.2772346E-01
outer loop
vertex 2.0000000E+00 0.0000000E+00 0.0000000E+00
vertex 1.5388417E+00 2.7950850E-01 4.6352550E-01
vertex 1.9021131E+00 0.0000000E+00 4.6352550E-01
endloop
endfacet
facet normal 5.6337303E-01 7.3220420E-01 3.8273725E-01
outer loop
vertex 1.9021131E+00 0.0000000E+00 4.6352550E-01
vertex 1.3090169E+00 2.3776414E-01 8.8167787E-01
vertex 1.6180340E+00 0.0000000E+00 8.8167787E-01
endloop
endfacet
facet normal 4.7314569E-01 6.1493737E-01 6.3086081E-01
outer loop
vertex 1.6180340E+00 0.0000000E+00 8.8167787E-01
vertex 9.5105654E-01 1.7274575E-01 1.2135255E+00
vertex 1.1755705E+00 0.0000000E+00 1.2135255E+00
endloop
endfacet
facet normal 3.2381481E-01 4.2085528E-01 8.4736347E-01
outer loop
vertex 1.1755705E+00 0.0000000E+00 1.2135255E+00
vertex 5.0000000E-01 9.0817817E-02 1.4265847E+00
vertex 6.1803401E-01 0.0000000E+00 1.4265847E+00
endloop
endfacet
facet normal NaN NaN NaN
outer loop
vertex 6.1803401E-01 0.0000000E+00 1.4265847E+00
vertex 0.0000000E+00 0.0000000E+00 1.5000000E+00
vertex 0.0000000E+00 0.0000000E+00 1.5000000E+00
endloop
endfacet
facet normal 6.7908473E-02 3.7387192E-01 -9.2499095E-01
outer loop
vertex 0.0000000E+00 0.0000000E+00 -1.5000000E+00
vertex 1.9098301E-01 1.4694631E-01 -1.4265847E+00
vertex 5.0000000E-01 9.0817817E-02 -1.4265847E+00
endloop
endfacet
facet normal 1.4251088E-01 7.8459758E-01 -6.0340476E-01
outer loop
vertex 5.0000000E-01 9.0817817E-02 -1.4265847E+00
vertex 3.6327127E-01 2.7950850E-01 -1.2135255E+00
vertex 9.5105654E-01 1.7274575E-01 -1.2135255E+00
endloop
endfacet
facet normal 1.6674748E-01 9.1803288E-01 -3.5973740E-01
outer loop
vertex 9.5105654E-01 1.7274575E-01 -1.2135255E+00
vertex 5.0000000E-01 3.8471043E-01 -8.8167787E-01
vertex 1.3090169E+00 2.3776414E-01 -8.8167787E-01
endloop
endfacet
facet normal 1.7535990E-01 9.6544886E-01 -1.9276251E-01
outer loop
vertex 1.3090169E+00 2.3776414E-01 -8.8167787E-01
vertex 5.8778524E-01 4.5225424E-01 -4.6352550E-01
vertex 1.5388417E+00 2.7950850E-01 -4.6352550E-01
endloop
endfacet
facet normal 1.7837933E-01 9.8207217E-01 -6.0951363E-02
outer loop
vertex 1.5388417E+00 2.7950850E-01 -4.6352550E-01
vertex 6.1803401E-01 4.7552827E-01 0.0000000E+00
vertex 1.6180340E+00 2.9389262E-01 0.0000000E+00
endloop
endfacet
facet normal 1.7837928E-01 9.8207211E-01 6.0951352E-02
outer loop
vertex 1.6180340E+00 2.9389262E-01 0.0000000E+00
vertex 5.8778524E-01 4.5225424E-01 4.6352550E-01
vertex 1.5388417E+00 2.7950850E-01 4.6352550E-01
endloop
endfacet
facet normal 1.7535990E-01 9.6544886E-01 1.9276249E-01
outer loop
vertex 1.5388417E+00 2.7950850E-01 4.6352550E-01
vertex 5.0000000E-01 3.8471043E-01 8.8167787E-01
vertex 1.3090169E+00 2.3776414E-01 8.8167787E-01
endloop
endfacet
facet normal 1.6674747E-01 9.1803282E-01 3.5973734E-01
outer loop
vertex 1.3090169E+00 2.3776414E-01 8.8167787E-01
vertex 3.6327127E-01 2.7950850E-01 1.2135255E+00
vertex 9.5105654E-01 1.7274575E-01 1.2135255E+00
endloop
endfacet
facet normal 1.4251088E-01 7.8459758E-01 6.0340470E-01
outer loop
vertex 9.5105654E-01 1.7274575E-01 1.2135255E+00
vertex 1.9098301E-01 1.4694631E-01 1.4265847E+00
vertex 5.0000000E-01 9.0817817E-02 1.4265847E+00
endloop
endfacet
facet normal NaN NaN NaN
outer loop
vertex 5.0000000E-01 9.0817817E-02 1.4265847E+00
vertex 0.0000000E+00 0.0000000E+00 1.5000000E+00
vertex 0.0000000E+00 0.0000000E+00 1.5000000E+00
endloop
endfacet
facet normal 0.0000000E+00 4.4693172E-01 -8.9456809E-01
outer loop
vertex 0.0000000E+00 0.0000000E+00 -1.5000000E+00
vertex -1.9098301E-01 1.4694631E-01 -1.4265847E+00
vertex 1.9098301E-01 1.4694631E-01 -1.4265847E+00
endloop
endfacet
facet normal 0.0000000E+00 8.4907079E-01 -5.2827895E-01
outer loop
vertex 1.9098301E-01 1.4694631E-01 -1.4265847E+00
vertex -3.6327127E-01 2.7950850E-01 -1.2135255E+00
vertex 3.6327127E-01 2.7950850E-01 -1.2135255E+00
endloop
endfacet
facet normal 0.0000000E+00 9.5324564E-01 -3.0219671E-01
outer loop
vertex 3.6327127E-01 2.7950850E-01 -1.2135255E+00
vertex -5.0000000E-01 3.8471043E-01 -8.8167787E-01
vertex 5.0000000E-01 3.8471043E-01 -8.8167787E-01
endloop
endfacet
facet normal 0.0000000E+00 9.8720407E-01 -1.5946226E-01
outer loop
vertex 5.0000000E-01 3.8471043E-01 -8.8167787E-01
vertex -5.8778524E-01 4.5225424E-01 -4.6352550E-01
vertex 5.8778524E-01 4.5225424E-01 -4.6352550E-01
endloop
endfacet
facet normal 0.0000000E+00 9.9874187E-01 -5.0147731E-02
outer loop
vertex 5.8778524E-01 4.5225424E-01 -4.6352550E-01
vertex -6.1803401E-01 4.7552827E-01 0.0000000E+00
vertex 6.1803401E-01 4.7552827E-01 0.0000000E+00
endloop
endfacet
facet normal 0.0000000E+00 9.9874181E-01 5.0147735E-02
outer loop
vertex 6.1803401E-01 4.7552827E-01 0.0000000E+00
vertex -5.8778524E-01 4.5225424E-01 4.6352550E-01
vertex 5.8778524E-01 4.5225424E-01 4.6352550E-01
endloop
endfacet
facet normal 0.0000000E+00 9.8720402E-01 1.5946224E-01
outer loop
vertex 5.8778524E-01 4.5225424E-01 4.6352550E-01
vertex -5.0000000E-01 3.8471043E-01 8.8167787E-01
vertex 5.0000000E-01 3.8471043E-01 8.8167787E-01
endloop
endfacet
facet normal 0.0000000E+00 9.5324564E-01 3.0219671E-01
outer loop
vertex 5.0000000E-01 3.8471043E-01 8.8167787E-01
vertex -3.6327127E-01 2.7950850E-01 1.2135255E+00
vertex 3.6327127E-01 2.7950850E-01 1.2135255E+00
endloop
endfacet
facet normal 0.0000000E+00 8.4907079E-01 5.2827895E-01
outer loop
vertex 3.6327127E-01 2.7950850E-01 1.2135255E+00
vertex -1.9098301E-01 1.4694631E-01 1.4265847E+00
vertex 1.9098301E-01 1.4694631E-01 1.4265847E+00
endloop
endfacet
facet normal NaN NaN NaN
outer loop
vertex 1.9098301E-01 1.4694631E-01 1.4265847E+00
vertex 0.0000000E+00 0.0000000E+00 1.5000000E+00
vertex 0.0000000E+00 0.0000000E+00 1.5000000E+00
endloop
endfacet
facet normal -6.7908473E-02 3.7387192E-01 -9.2499095E-01
outer loop
vertex 0.0000000E+00 0.0000000E+00 -1.5000000E+00
vertex -5.0000000E-01 9.0817817E-02 -1.4265847E+00
vertex -1.9098301E-01 1.4694631E-01 -1.4265847E+00
endloop
endfacet
facet normal -1.4251088E-01 7.8459758E-01 -6.0340470E-01
outer loop
vertex -1.9098301E-01 1.4694631E-01 -1.4265847E+00
vertex -9.5105654E-01 1.7274575E-01 -1.2135255E+00
vertex -3.6327127E-01 2.7950850E-01 -1.2135255E+00
endloop
endfacet
facet normal -1.6674745E-01 9.1803288E-01 -3.5973731E-01
outer loop
vertex -3.6327127E-01 2.7950850E-01 -1.2135255E+00
vertex -1.3090169E+00 2.3776414E-01 -8.8167787E-01
vertex -5.0000000E-01 3.8471043E-01 -8.8167787E-01
endloop
endfacet
facet normal -1.7535990E-01 9.6544886E-01 -1.9276254E-01
outer loop
vertex -5.0000000E-01 3.8471043E-01 -8.8167787E-01
vertex -1.5388417E+00 2.7950850E-01 -4.6352550E-01
vertex -5.8778524E-01 4.5225424E-01 -4.6352550E-01
endloop
endfacet
facet normal -1.7837931E-01 9.8207217E-01 -6.0951415E-02
outer loop
vertex -5.8778524E-01 4.5225424E-01 -4.6352550E-01
vertex -1.6180340E+00 2.9389262E-01 0.0000000E+00
vertex -6.1803401E-01 4.7552827E-01 0.0000000E+00
endloop
endfacet
facet normal -1.7837930E-01 9.8207211E-01 6.0951408E-02
outer loop
vertex -6.1803401E-01 4.7552827E-01 0.0000000E+00
vertex -1.5388417E+00 2.7950850E-01 4.6352550E-01
vertex -5.8778524E-01 4.5225424E-01 4.6352550E-01
endloop
endfacet
facet normal -1.7535990E-01 9.6544886E-01 1.9276252E-01
outer loop
vertex -5.8778524E-01 4.5225424E-01 4.6352550E-01
vertex -1.3090169E+00 2.3776414E-01 8.8167787E-01
vertex -5.0000000E-01 3.8471043E-01 8.8167787E-01
endloop
endfacet
facet normal -1.6674748E-01 9.1803282E-01 3.5973734E-01
outer loop
vertex -5.0000000E-01 3.8471043E-01 8.8167787E-01
vertex -9.5105654E-01 1.7274575E-01 1.2135255E+00
vertex -3.6327127E-01 2.7950850E-01 1.2135255E+00
endloop
endfacet
facet normal -1.4251091E-01 7.8459758E-01 6.0340476E-01
outer loop
vertex -3.6327127E-01 2.7950850E-01 1.2135255E+00
vertex -5.0000000E-01 9.0817817E-02 1.4265847E+00
vertex -1.9098301E-01 1.4694631E-01 1.4265847E+00
endloop
endfacet
facet normal NaN NaN NaN
outer loop
vertex -1.9098301E-01 1.4694631E-01 1.4265847E+00
vertex 0.0000000E+00 0.0000000E+00 1.5000000E+00
vertex 0.0000000E+00 0.0000000E+00 1.5000000E+00
endloop
endfacet
facet normal -1.1659683E-01 1.5153843E-01 -9.8155051E-01
outer loop
vertex 0.0000000E+00 0.0000000E+00 -1.5000000E+00
vertex -6.1803401E-01 0.0000000E+00 -1.4265847E+00
vertex -5.0000000E-01 9.0817817E-02 -1.4265847E+00
endloop
endfacet
facet normal -3.2381481E-01 4.2085516E-01 -8.4736347E-01
outer loop
vertex -5.0000000E-01 9.0817817E-02 -1.4265847E+00
vertex -1.1755705E+00 0.0000000E+00 -1.2135255E+00
vertex -9.5105654E-01 1.7274575E-01 -1.2135255E+00
endloop
endfacet
facet normal -4.7314560E-01 6.1493748E-01 -6.3086069E-01
outer loop
vertex -9.5105654E-01 1.7274575E-01 -1.2135255E+00
vertex -1.6180340E+00 0.0000000E+00 -8.8167787E-01
vertex -1.3090169E+00 2.3776414E-01 -8.8167787E-01
endloop
endfacet
facet normal -5.6337309E-01 7.3220426E-01 -3.8273728E-01
outer loop
vertex -1.3090169E+00 2.3776414E-01 -8.8167787E-01
vertex -1.9021131E+00 0.0000000E+00 -4.6352550E-01
vertex -1.5388417E+00 2.7950850E-01 -4.6352550E-01
endloop
endfacet
facet normal -6.0481101E-01 7.8605998E-01 -1.2772359E-01
outer loop
vertex -1.5388417E+00 2.7950850E-01 -4.6352550E-01
vertex -2.0000000E+00 0.0000000E+00 0.0000000E+00
vertex -1.6180340E+00 2.9389262E-01 0.0000000E+00
endloop
endfacet
facet normal -6.0481095E-01 7.8606009E-01 1.2772359E-01
outer loop
vertex -1.6180340E+00 2.9389262E-01 0.0000000E+00
vertex -1.9021131E+00 0.0000000E+00 4.6352550E-01
vertex -1.5388417E+00 2.7950850E-01 4.6352550E-01
endloop
endfacet
facet normal -5.6337303E-01 7.3220420E-01 3.8273725E-01
outer loop
vertex -1.5388417E+00 2.7950850E-01 4.6352550E-01
vertex -1.6180340E+00 0.0000000E+00 8.8167787E-01
vertex -1.3090169E+00 2.3776414E-01 8.8167787E-01
endloop
endfacet
facet normal -4.7314572E-01 6.1493731E-01 6.3086069E-01
outer loop
vertex -1.3090169E+00 2.3776414E-01 8.8167787E-01
vertex -1.1755705E+00 0.0000000E+00 1.2135255E+00
vertex -9.5105654E-01 1.7274575E-01 1.2135255E+00
endloop
endfacet
facet normal -3.2381478E-01 4.2085528E-01 8.4736353E-01
outer loop
vertex -9.5105654E-01 1.7274575E-01 1.2135255E+00
vertex -6.1803401E-01 0.0000000E+00 1.4265847E+00
vertex -5.0000000E-01 9.0817817E-02 1.4265847E+00
endloop
endfacet
facet normal NaN NaN NaN
outer loop
vertex -5.0000000E-01 9.0817817E-02 1.4265847E+00
vertex 0.0000000E+00 0.0000000E+00 1.5000000E+00
vertex 0.0000000E+00 0.0000000E+00 1.5000000E+00
endloop
endfacet
endsolid Created by stlwrite.m 21-May-2017 12:04:38
